<mxfile host="app.diagrams.net" modified="2024-05-07T18:47:04.143Z" agent="Mozilla/5.0 (Windows NT 10.0; Win64; x64) AppleWebKit/537.36 (KHTML, like Gecko) Chrome/124.0.0.0 Safari/537.36" etag="EDpH8vGLMNgwYDdRs5T-" version="24.2.5" type="device">
  <diagram name="Page-1" id="c4acf3e9-155e-7222-9cf6-157b1a14988f">
    <mxGraphModel dx="904" dy="1139" grid="1" gridSize="10" guides="1" tooltips="1" connect="1" arrows="1" fold="1" page="1" pageScale="1" pageWidth="850" pageHeight="1100" background="none" math="0" shadow="0">
      <root>
        <mxCell id="0" />
        <mxCell id="1" parent="0" />
        <mxCell id="0Jw_0pqef54ksfQyoP_c-5" style="edgeStyle=orthogonalEdgeStyle;rounded=0;orthogonalLoop=1;jettySize=auto;html=1;entryX=0;entryY=0.5;entryDx=0;entryDy=0;endArrow=none;endFill=0;" parent="1" source="5d2195bd80daf111-18" target="0Jw_0pqef54ksfQyoP_c-1" edge="1">
          <mxGeometry relative="1" as="geometry" />
        </mxCell>
        <mxCell id="WLs7GbNyF3fnMFnim6RR-5" value="0..*" style="edgeLabel;html=1;align=center;verticalAlign=middle;resizable=0;points=[];" parent="0Jw_0pqef54ksfQyoP_c-5" vertex="1" connectable="0">
          <mxGeometry x="-0.25" y="-4" relative="1" as="geometry">
            <mxPoint x="-5" y="-13" as="offset" />
          </mxGeometry>
        </mxCell>
        <mxCell id="WLs7GbNyF3fnMFnim6RR-6" value="1" style="edgeLabel;html=1;align=center;verticalAlign=middle;resizable=0;points=[];" parent="0Jw_0pqef54ksfQyoP_c-5" vertex="1" connectable="0">
          <mxGeometry x="0.55" relative="1" as="geometry">
            <mxPoint y="9" as="offset" />
          </mxGeometry>
        </mxCell>
        <mxCell id="oY6_I_e0kRh-n7d8JWCE-2" style="edgeStyle=orthogonalEdgeStyle;rounded=0;orthogonalLoop=1;jettySize=auto;html=1;entryX=0.5;entryY=0;entryDx=0;entryDy=0;endArrow=none;endFill=0;startArrow=diamond;startFill=1;" parent="1" source="5d2195bd80daf111-18" target="oY6_I_e0kRh-n7d8JWCE-1" edge="1">
          <mxGeometry relative="1" as="geometry" />
        </mxCell>
        <mxCell id="lky9Ef4iosJioVbj67RW-1" value="1" style="edgeLabel;html=1;align=center;verticalAlign=middle;resizable=0;points=[];" parent="oY6_I_e0kRh-n7d8JWCE-2" vertex="1" connectable="0">
          <mxGeometry x="-0.2581" y="-2" relative="1" as="geometry">
            <mxPoint x="-10" y="-13" as="offset" />
          </mxGeometry>
        </mxCell>
        <mxCell id="lky9Ef4iosJioVbj67RW-2" value="1..*" style="edgeLabel;html=1;align=center;verticalAlign=middle;resizable=0;points=[];" parent="oY6_I_e0kRh-n7d8JWCE-2" vertex="1" connectable="0">
          <mxGeometry x="0.4194" y="1" relative="1" as="geometry">
            <mxPoint x="11" y="6" as="offset" />
          </mxGeometry>
        </mxCell>
        <mxCell id="5d2195bd80daf111-18" value="&lt;p style=&quot;margin:0px;margin-top:4px;text-align:center;&quot;&gt;&lt;b&gt;queueItemsRequest&lt;/b&gt;&lt;/p&gt;&lt;hr size=&quot;1&quot;&gt;&lt;p style=&quot;margin:0px;margin-left:4px;&quot;&gt;- queueName: String&lt;br&gt;&lt;/p&gt;&lt;p style=&quot;margin:0px;margin-left:4px;&quot;&gt;- rpaInterfaceSpecification: String&lt;/p&gt;&lt;p style=&quot;margin:0px;margin-left:4px;&quot;&gt;- queuePayload: Array(queueItem)&lt;/p&gt;" style="verticalAlign=top;align=left;overflow=fill;fontSize=12;fontFamily=Helvetica;html=1;rounded=0;shadow=0;comic=0;labelBackgroundColor=none;strokeWidth=1" parent="1" vertex="1">
          <mxGeometry x="70" y="63.33" width="190" height="94.67" as="geometry" />
        </mxCell>
        <mxCell id="0Jw_0pqef54ksfQyoP_c-11" style="edgeStyle=orthogonalEdgeStyle;rounded=0;orthogonalLoop=1;jettySize=auto;html=1;entryX=0;entryY=0.5;entryDx=0;entryDy=0;endArrow=none;endFill=0;" parent="1" source="0Jw_0pqef54ksfQyoP_c-1" target="0Jw_0pqef54ksfQyoP_c-9" edge="1">
          <mxGeometry relative="1" as="geometry" />
        </mxCell>
        <mxCell id="WLs7GbNyF3fnMFnim6RR-7" value="1" style="edgeLabel;html=1;align=center;verticalAlign=middle;resizable=0;points=[];" parent="0Jw_0pqef54ksfQyoP_c-11" vertex="1" connectable="0">
          <mxGeometry x="-0.1015" y="-2" relative="1" as="geometry">
            <mxPoint x="-19" y="-12" as="offset" />
          </mxGeometry>
        </mxCell>
        <mxCell id="WLs7GbNyF3fnMFnim6RR-8" value="1..*" style="edgeLabel;html=1;align=center;verticalAlign=middle;resizable=0;points=[];" parent="0Jw_0pqef54ksfQyoP_c-11" vertex="1" connectable="0">
          <mxGeometry x="0.5341" y="-1" relative="1" as="geometry">
            <mxPoint y="8" as="offset" />
          </mxGeometry>
        </mxCell>
        <mxCell id="0Jw_0pqef54ksfQyoP_c-1" value="&lt;p style=&quot;margin:0px;margin-top:4px;text-align:center;&quot;&gt;&lt;b&gt;Orchestrator&lt;/b&gt;&lt;/p&gt;&lt;hr size=&quot;1&quot;&gt;&lt;p style=&quot;margin:0px;margin-left:4px;&quot;&gt;&lt;br&gt;&lt;/p&gt;&lt;hr size=&quot;1&quot;&gt;&lt;p style=&quot;margin:0px;margin-left:4px;&quot;&gt;+ queueItemsRequest(requestData)&lt;/p&gt;" style="verticalAlign=top;align=left;overflow=fill;fontSize=12;fontFamily=Helvetica;html=1;rounded=0;shadow=0;comic=0;labelBackgroundColor=none;strokeWidth=1" parent="1" vertex="1">
          <mxGeometry x="300" y="61.66" width="250" height="98.34" as="geometry" />
        </mxCell>
        <mxCell id="0Jw_0pqef54ksfQyoP_c-9" value="&lt;p style=&quot;margin:0px;margin-top:4px;text-align:center;&quot;&gt;&lt;b&gt;RPA Interface&lt;/b&gt;&lt;/p&gt;&lt;hr size=&quot;1&quot;&gt;&lt;p style=&quot;margin:0px;margin-left:4px;&quot;&gt;&lt;br&gt;&lt;/p&gt;&lt;hr size=&quot;1&quot;&gt;&lt;p style=&quot;margin:0px;margin-left:4px;&quot;&gt;+ addToQueue(payload)&lt;/p&gt;" style="verticalAlign=top;align=left;overflow=fill;fontSize=12;fontFamily=Helvetica;html=1;rounded=0;shadow=0;comic=0;labelBackgroundColor=none;strokeWidth=1" parent="1" vertex="1">
          <mxGeometry x="610" y="60.66" width="190" height="100.54" as="geometry" />
        </mxCell>
        <mxCell id="oY6_I_e0kRh-n7d8JWCE-1" value="&lt;p style=&quot;margin:0px;margin-top:4px;text-align:center;&quot;&gt;&lt;b&gt;queueItem&lt;/b&gt;&lt;/p&gt;&lt;hr size=&quot;1&quot;&gt;&lt;p style=&quot;margin:0px;margin-left:4px;&quot;&gt;- priority: Integer&lt;/p&gt;&lt;p style=&quot;margin:0px;margin-left:4px;&quot;&gt;- data: Dictionary&lt;/p&gt;" style="verticalAlign=top;align=left;overflow=fill;fontSize=12;fontFamily=Helvetica;html=1;rounded=0;shadow=0;comic=0;labelBackgroundColor=none;strokeWidth=1" parent="1" vertex="1">
          <mxGeometry x="70" y="220" width="190" height="70" as="geometry" />
        </mxCell>
      </root>
    </mxGraphModel>
  </diagram>
</mxfile>
